<svg xmlns="http://www.w3.org/2000/svg" xmlns:xlink="http://www.w3.org/1999/xlink" width="252" height="301" viewBox="0 0 252 301">
    <defs>
        <filter id="a" width="105.7%" height="124.1%" x="-2.9%" y="-8.6%" filterUnits="objectBoundingBox">
            <feOffset dy="2" in="SourceAlpha" result="shadowOffsetOuter1"/>
            <feGaussianBlur in="shadowOffsetOuter1" result="shadowBlurOuter1" stdDeviation="2"/>
            <feColorMatrix in="shadowBlurOuter1" result="shadowMatrixOuter1" values="0 0 0 0 0 0 0 0 0 0 0 0 0 0 0 0 0 0 0.5 0"/>
            <feMerge>
                <feMergeNode in="shadowMatrixOuter1"/>
                <feMergeNode in="SourceGraphic"/>
            </feMerge>
        </filter>
        <linearGradient id="d" x1="80.865%" x2=".627%" y1="34.423%" y2="74.893%">
            <stop offset="0%" stop-color="#27D9A1"/>
            <stop offset="100%" stop-color="#6F85FF"/>
        </linearGradient>
        <path id="c" d="M212 147.7c-4.5 5.5-10.4 8.4-16.6 8.4-3.6 0-7.3-1-10.9-3-2.2-1.2-4.3-2.8-6.4-4.2-4.9-3.4-9.7-7.1-14.8-10.2-2.4-1.5-5.5-2.6-7.5-3.4V100h-30v6h24v28c-1-.1-1.7-.2-2.6-.2-5.2 0-10.3 1.5-15.5 4.7-3.5 2.2-6.6 5-9.5 7.3-4.7-3.1-9-6.9-14-9.2-4-1.9-7.9-2.7-11.7-2.7-6.4 0-12.7 2.4-18.6 6.3-2.7 1.8-6 3.6-8 5.5V46.1C69.9 24 88 6 110.1 6s40.2 18 40.2 40h6c0-25-20.8-46-46.2-46-25.4 0-46.2 20.7-46.2 46.1V150c-2 1-2.7 2-4.1 2.9-3.2 2.1-6.6 3.1-10.2 3.1-1.8 0-3.7-.3-5.6-.8-5.4-1.4-9.6-4.4-13-8.8 4.3 19 13 34.7 33 40.1 2.8.8 5.6 1.5 8.3 1.5 8.3 12 22.2 20.1 37.9 20.1 16.4 0 30.8-8.5 39-21.5 5.3 1.5 10.7 2.2 15.9 2.2 7.1 0 13.8-1.2 19.4-3.4 16.6-6.6 27.1-25.3 28.3-38.4-.3.3-.6.5-.8.7zm-101.8 54.7c-11.8 0-22.4-5.1-29.7-13.2h.6c15.8 0 29.8-6.8 41.2-21.2 5.4 8.1 12.9 13.5 21.1 16.9-7.3 10.5-19.5 17.5-33.2 17.5zm72-22.5c-4.9 2-11 3-17.2 3-4.5 0-8.9-.6-13-1.6-2-.5-3.9-1.1-5.8-1.8-8-3.1-14.7-8.2-19.1-14.9l-4.6-6.9-5.1 6.5c-9.9 12.6-22.1 18.9-36.4 18.9-1.7 0-3.5-.1-5.2-.3-2.4-.2-4.9-.6-7.4-1.2-.9-.2-1.9-.4-2.9-.7-10.7-2.9-18.2-9.2-23.4-19.9.1 0 .2.1.3.1 2.4.6 4.8.9 7.2.9 4.9 0 9.5-1.4 13.6-4.1.3-.2 1-.4 1-.6l6-4.2c1-.6 1.5-1.1 2.3-1.6 2.9-2.1 5.9-4.2 8.9-6.2 5.3-3.5 10.3-5.3 15.1-5.3 3.1 0 6.1.7 9.2 2.2 2.9 1.4 5.8 3.4 8.8 5.6 1.5 1.1 3 2.1 4.5 3.2l3.6 2.4 3.4-2.6c1-.7 1.9-1.5 2.9-2.3 2-1.6 4.1-3.3 6.2-4.6 4.1-2.5 8.3-3.8 12.4-3.8.9 0 1.8.1 2.8.2 2 .3 4 .8 6 1.7 1 .6 2.8 1.3 4.2 2.1 3.2 1.9 6.2 4.1 9.3 6.4 1.6 1.2 3.2 2.4 4.9 3.5.4.3.8.5 1.1.8 1.8 1.3 3.7 2.6 5.8 3.8 4.4 2.5 9.1 3.7 13.8 3.7 2.2 0 4.4-.3 6.5-.8-4.3 7.7-11.2 15-19.7 18.4z"/>
        <filter id="b" width="107.7%" height="106.7%" x="-3.9%" y="-2.4%" filterUnits="objectBoundingBox">
            <feOffset dy="2" in="SourceAlpha" result="shadowOffsetOuter1"/>
            <feGaussianBlur in="shadowOffsetOuter1" result="shadowBlurOuter1" stdDeviation="2"/>
            <feColorMatrix in="shadowBlurOuter1" values="0 0 0 0 0.327168367 0 0 0 0 0.327168367 0 0 0 0 0.327168367 0 0 0 0.5 0"/>
        </filter>
    </defs>
    <g fill="none" fill-rule="nonzero">
        <g fill="#FFF" filter="url(#a)" transform="translate(4 237)">
            <path d="M23 45.6c0 7.8-3.8 11.6-11.5 11.7C3.9 57.3 0 53.4 0 45.6V11.7C0 3.9 3.8.1 11.5.1S23 4 23 11.7v7.5h-8v-7.5c0-2.5-1.2-3.7-3.5-3.8h-.1C9.1 7.9 8 9.2 8 11.7v33.9c0 2.5 1.2 3.8 3.5 3.8s3.5-1.3 3.5-3.8v-13h-4v-7.9h12v20.9zM61.1 45.6c0 7.8-3.8 11.6-11.5 11.7-7.6 0-11.5-3.9-11.5-11.7V.9h8v44.7c0 2.5 1.2 3.8 3.5 3.8s3.5-1.3 3.5-3.8V.9h8v44.7zM76.3 11.7C76.3 3.9 80.1.1 87.8.1S99.3 4 99.3 11.7v7.5h-8v-7.5c0-2.5-1.2-3.7-3.5-3.8h-.1c-2.3 0-3.4 1.3-3.4 3.8v5c0 2.5 2.5 5.5 7.5 9.1 5 3.6 7.5 7.8 7.5 12.8v7c0 7.8-3.8 11.7-11.5 11.7s-11.5-3.9-11.5-11.7v-7.5h8v7.5c0 2.5 1.2 3.8 3.5 3.8s3.5-1.3 3.5-3.8v-6.3c0-2.7-2.5-5.8-7.5-9.4-5-3.6-7.5-7.9-7.5-13v-5.2zM135.4.9v7.9h-7.5v47.5h-8V8.8h-7.5V.9zM169.9 36.7l2.6 19.7h-8.1l-1.6-11.8h-8.2L153 56.4h-8.1l2.6-19.6L153.2 1h11l5.7 35.7zm-8 0l-3.1-23.1-3.1 23.1h6.2zM201.4 56.4h-11l-5.7-35.8L182.1 1h8.1l5.6 42.7L201.4 1h8.1l-2.6 19.7zM223.1.9h20.7v7.9h-12.7v15.9h11v7.9h-11v15.9h12.7v7.9h-20.7z"/>
        </g>
        <g transform="translate(4 2)">
            <use fill="#000" filter="url(#b)" xlink:href="#c"/>
            <use fill="url(#d)" fill-rule="evenodd" xlink:href="#c"/>
        </g>
        <path fill="#40BCC2" d="M93.4 105.1v3h27v-6h-27z"/>
    </g>
</svg>
